<svg aria-hidden="true" style="position: absolute; width: 0; height: 0; overflow: hidden;" version="1.1" xmlns="http://www.w3.org/2000/svg" xmlns:xlink="http://www.w3.org/1999/xlink">
<defs>

<!-- PIX -->
<symbol id="icon-pix" viewBox="0 0 56 56">
<path d="M27.3027 0.0303355C25.7959 0.152021 24.3461 0.703068 23.0194 1.65832C22.816 1.80476 20.2054 4.36486 17.2181 7.34745L11.7866 12.7702L12.8324 12.8481C15.1166 13.0182 16.5822 13.4377 17.8495 14.2843C18.1291 14.4711 19.9182 16.2067 22.9858 19.2668C25.5849 21.8596 27.7778 23.9944 27.8823 24.0336C28.1598 24.1377 28.6435 24.1202 28.89 23.9973C29.0084 23.9382 31.1629 21.8369 33.6779 19.3276C36.8504 16.1622 38.4154 14.648 38.7886 14.3825C40.1195 13.4361 41.5576 12.9765 43.4814 12.8827L44.4086 12.8375L38.9087 7.35169C34.8668 3.32001 33.2751 1.77516 32.9041 1.52359C31.1946 0.364381 29.3281 -0.133189 27.3027 0.0303355ZM7.58646 16.8515C6.88374 17.5665 5.2919 19.1807 4.04912 20.4386C1.73815 22.7775 1.38605 23.196 0.879617 24.2055C-0.135462 26.229 -0.28152 28.7221 0.491069 30.8396C0.752656 31.5565 1.20051 32.3878 1.65194 32.9939C1.85441 33.2659 3.55776 35.0422 5.43715 36.9413L8.85419 40.3942L11.3473 40.3668C13.6522 40.3414 13.881 40.3282 14.3783 40.1924C15.0128 40.0191 15.9083 39.6038 16.3892 39.2598C16.5777 39.125 18.8199 36.9363 21.3719 34.3958C24.253 31.5278 26.1293 29.71 26.3219 29.6004C27.5398 28.9075 29.0426 28.8836 30.3156 29.5373C30.7436 29.757 31.214 30.2048 35.4936 34.4653C40.5317 39.481 40.6001 39.5417 41.6733 39.9457C42.559 40.2792 42.905 40.3159 45.1674 40.3159H47.2673L50.6154 36.9624C52.457 35.1179 54.1385 33.3754 54.352 33.0901C55.0855 32.1104 55.6056 30.9285 55.8788 29.6205C56.0255 28.9184 56.0424 27.3286 55.911 26.5935C55.6883 25.3474 55.0937 23.9659 54.3368 22.9359C54.0888 22.5982 52.6473 21.0959 50.5648 19.0044L47.1944 15.6196L45.0089 15.6469C43.0238 15.6718 42.774 15.6878 42.2854 15.8209C41.6819 15.9854 40.9328 16.322 40.4534 16.6441C40.2774 16.7623 38.0153 18.968 35.4263 21.5455C30.2798 26.6695 30.4532 26.5192 29.3677 26.797C28.2666 27.0787 27.0593 26.8738 26.1219 26.2461C25.9504 26.1313 23.707 23.942 21.1365 21.3811C16.3071 16.5696 16.2211 16.4919 15.2504 16.0625C14.3308 15.6557 13.9881 15.6138 11.3186 15.5813L8.86414 15.5514L7.58646 16.8515ZM27.8611 31.9822C27.7687 32.0186 25.5748 34.1616 22.9858 36.7445C20.0968 39.6268 18.1227 41.5448 17.8751 41.71C16.5739 42.578 15.12 42.9943 12.8147 43.1591L11.6546 43.242L17.1102 48.6569C20.6524 52.1727 22.7478 54.203 23.0849 54.4458C24.5459 55.4981 26.1207 56 27.962 56C29.8455 56 31.5408 55.4413 33.0068 54.3378C33.5042 53.9632 44.2692 43.3181 44.2692 43.2007C44.2692 43.1679 44.0082 43.1411 43.6894 43.1411C42.5172 43.1411 41.0497 42.8284 40.0472 42.3651C38.8363 41.8054 38.6936 41.6781 33.7115 36.7104C31.1411 34.1473 28.9527 32.0181 28.8486 31.9789C28.616 31.8912 28.0879 31.893 27.8611 31.9822Z"/>
</symbol>

<!-- Cartão de crédito -->
<symbol id="icon-credito" viewBox="0 0 56 56">
<path d="M32.8253 0.070166C31.2655 0.538691 1.78279 10.0121 1.61265 10.0994C0.650975 10.5931 -0.0800567 12.0243 0.00704636 13.2429C0.0490156 13.8309 0.534411 15.9973 0.624227 15.9975C0.701836 15.9976 0.208301 16.1549 19.9348 9.84142C36.8076 4.44123 36.4079 4.56993 36.4484 4.52169C36.5068 4.45185 35.9814 2.26816 35.7917 1.79271C35.3025 0.56623 33.8949 -0.251034 32.8253 0.070166ZM32.3533 11.3604C26.8877 13.1174 7.08733 19.4581 3.75851 20.5174C2.6603 20.8669 1.7528 21.1612 1.74187 21.1713C1.70005 21.2103 4.83268 35.0516 4.96476 35.4115C5.16745 35.9635 5.74492 36.6563 6.23552 36.9361C6.72913 37.2176 7.66187 37.3221 8.18245 37.1542L8.4999 37.0518L8.52152 30.552L8.54315 24.0523L8.73461 23.466C9.20975 22.0105 10.0375 21.0351 11.2782 20.4685L11.7078 20.2724L25.8592 20.2486C39.2485 20.226 40.0085 20.2163 39.9718 20.0686C39.877 19.6884 37.6654 9.79084 37.6654 9.74683C37.6654 9.71983 37.6231 9.70129 37.5712 9.70552C37.5195 9.70975 35.1714 10.4544 32.3533 11.3604ZM11.9338 21.8836C10.8414 22.2086 10.0723 23.1829 9.86845 24.5C9.7537 25.2414 9.7537 46.5324 9.86845 47.2739C10.0399 48.3816 10.5701 49.1997 11.4327 49.6879L11.9338 49.9715L28.1301 49.9952C38.8367 50.0109 44.4665 49.9879 44.7396 49.9276C44.9668 49.8775 45.3076 49.7476 45.4968 49.639C45.9949 49.353 46.5839 48.5972 46.7947 47.9733L46.971 47.4516L46.9912 36.0669C47.0111 24.8689 47.0089 24.6727 46.8595 24.0973C46.6015 23.1046 46.0143 22.355 45.1823 21.9563C44.8832 21.8129 43.7459 21.8013 28.5859 21.7869C15.8116 21.7748 12.2295 21.7955 11.9338 21.8836ZM43.1659 32.7001C43.6259 32.9553 44.0351 33.52 44.1788 34.098C44.3421 34.7549 44.3417 37.021 44.178 37.679C44.0274 38.2851 43.5759 38.8818 43.1034 39.0996C42.7857 39.2461 42.4624 39.2618 39.7752 39.2618H36.7989L36.4405 39.0492C36.0291 38.805 35.7442 38.4376 35.5393 37.8868C35.4115 37.5434 35.3985 37.3141 35.4193 35.7644L35.4426 34.0271L35.6712 33.5861C35.9589 33.0305 36.4294 32.6471 36.9366 32.5546C37.151 32.5156 38.5639 32.49 40.0766 32.4978C42.6942 32.5113 42.8431 32.5211 43.1659 32.7001ZM18.7529 43.7617V44.5266H15.6636H12.5743V43.7617V42.9967H15.6636H18.7529V43.7617ZM27.2673 43.7617V44.5266H24.178H21.0887V43.7617V42.9967H24.178H27.2673V43.7617ZM35.7817 43.7627V44.5286L32.6763 44.5051L29.5708 44.4816L29.5425 43.8701C29.527 43.5337 29.5332 43.1996 29.5563 43.1276C29.5922 43.016 30.0541 42.9967 32.6901 42.9967H35.7817V43.7627ZM44.2961 43.7617V44.5266H41.1691H38.0421V43.7617V42.9967H41.1691H44.2961V43.7617Z"/>
</symbol>

<!-- Frete -->
<symbol id="icon-frete" viewBox="0 0 56 56">
<path fill-rule="evenodd" clip-rule="evenodd" d="M36.6993 0.525059C37.0235 0.849283 37.2244 2.44065 37.2244 4.68178V8.31344H40.2588C41.9276 8.31344 43.8178 8.51296 44.4597 8.75711C45.8393 9.2813 50.8208 13.9368 52.6003 16.3643L53.8512 18.0708V25.5586C53.8512 32.9037 53.87 33.0547 54.8357 33.4782C55.3774 33.7158 55.8845 34.3638 55.9633 34.9186C56.2013 36.5988 55.3074 37.1917 52.5368 37.1917H50.017L49.5243 39.1493C48.9476 41.4394 47.0224 43.8035 44.9222 44.8002C40.3021 46.9928 34.2508 43.8473 33.44 38.8325L33.1744 37.1917H26.8859H20.5975V38.3031C20.5975 39.6315 19.2665 42.3662 18.1122 43.4102C13.5656 47.5214 5.73305 45.058 4.51054 39.1327C4.1885 37.5715 4.01392 37.3969 2.64264 37.2652C1.81086 37.1856 0.883255 36.9152 0.581346 36.6649C-0.129235 36.0751 -0.220242 2.16499 0.485525 0.846221C0.921762 0.031066 1.58596 0 18.5563 0C31.6758 0 36.3081 0.13389 36.6993 0.525059ZM37.3171 16.5175L37.1915 20.5648H43.5522C48.5359 20.5648 49.9133 20.4397 49.9133 19.9859C49.9133 19.6678 48.2532 17.7873 46.2243 15.8065L42.5353 12.2059L39.9892 12.338L37.4431 12.4702L37.3171 16.5175ZM39.2108 33.939C36.6306 35.6296 37.0997 39.6984 40.0155 40.917C44.1464 42.6431 47.4298 37.7036 44.2588 34.5327C42.7992 33.073 40.8775 32.8468 39.2108 33.939ZM9.62505 34.5327C7.94924 36.2085 7.92867 38.0235 9.56423 39.8538C12.6748 43.3349 18.17 39.6315 16.0308 35.4953C14.6744 32.8713 11.7288 32.429 9.62505 34.5327Z" />
</symbol>

<!-- Whatsapp -->
<symbol id="icon-whatsapp" viewBox="0 0 56 56">
<path d="M25.9729 0.0181292C21.7392 0.430737 18.5466 1.34565 15.084 3.13829C9.79799 5.87512 5.52958 10.2301 2.89045 15.5796C1.87653 17.6348 1.39868 18.8946 0.868746 20.9102C0.200656 23.4505 0.00613967 24.9949 0.000108994 27.8054C-0.00285152 29.2046 0.0548237 30.7234 0.133442 31.3142C0.731247 35.8068 2.14023 39.6786 4.49669 43.3035L5.28211 44.5117L3.53738 49.6622C2.57773 52.495 1.80778 54.8279 1.82631 54.8465C1.84495 54.8651 4.24505 54.1174 7.15995 53.1849C10.075 52.2525 12.4989 51.4895 12.5466 51.4895C12.5942 51.4895 13.0442 51.745 13.5465 52.0572C14.0488 52.3695 15.1013 52.9318 15.8852 53.3071C22.9745 56.6999 31.0784 56.9903 38.3374 54.1117C46.562 50.8499 52.8792 43.7146 55.1341 35.1393C55.8248 32.5127 56 31.0729 56 28.0247C56 24.9765 55.8248 23.5367 55.1341 20.9102C52.4888 10.8502 44.4257 3.03051 34.2514 0.65771C32.5419 0.259027 30.7631 0.0570545 28.6045 0.0165941C27.3984 -0.00610317 26.2142 -0.00544528 25.9729 0.0181292ZM19.2856 13.0294C19.4671 13.1236 19.7215 13.3906 19.851 13.6226C20.1779 14.2085 22.8436 20.6288 22.9212 21.0172C23.0205 21.514 22.5347 22.3586 21.4448 23.584C20.3074 24.8627 20.063 25.2732 20.1642 25.7343C20.3481 26.571 22.8839 29.934 24.4463 31.413C26.8707 33.7079 30.5353 35.8872 32.1681 36.0049C33.0077 36.0656 33.3138 35.828 34.598 34.1185C35.1806 33.3431 35.8019 32.5638 35.9788 32.387C36.4017 31.9641 37.0296 31.8745 37.7336 32.1364C38.6368 32.4726 44.1579 35.1613 44.5457 35.4538L44.9168 35.7338L44.8555 36.8956C44.6983 39.8783 43.6521 41.4271 40.8851 42.7737C38.2545 44.0539 36.1954 44.0189 32.164 42.6255C26.7555 40.7561 23.8847 38.9705 19.9947 35.056C18.0482 33.0974 16.665 31.4415 15.0828 29.176C12.4758 25.4428 11.4761 22.5601 11.7736 19.6344C12.0122 17.2886 12.832 15.5569 14.4876 13.9014C15.2884 13.1004 16.3364 12.7707 17.9137 12.8233C18.5829 12.8456 19.0735 12.9193 19.2856 13.0294Z"/>
</symbol>

</defs>
</svg>